{"title":"A Million Ways To Die In The West 2014 Webrip x264 AC3 TiTAN","uid":10357889,"size":1020395683,"categoryP":"video","categoryS":"movies","magnet":"?xt=urn:btih:7eba73a510fd318a1afae67a332ac61ae78a7443&amp;dn=A+Million+Ways+To+Die+In+The+West+2014+Webrip+x264+AC3+TiTAN&amp;tr=udp%3A%2F%2Ftracker.openbittorrent.com%3A80&amp;tr=udp%3A%2F%2Fopen.demonii.com%3A1337&amp;tr=udp%3A%2F%2Ftracker.coppersurfer.tk%3A6969&amp;tr=udp%3A%2F%2Fexodus.desync.com%3A6969","seeders":1,"leechers":0,"uploader":"Xetron","files":3,"time":1402769365,"description":"[center]\n\n[img]http://imgchicken.com/images/68450009653023493777.jpg[/img]\n &lt;a href=&quot;\nhttp://www.imdb.com/title/tt2557490/&quot; rel=&quot;nofollow&quot; target=&quot;_NEW&quot;&gt;\nhttp://www.imdb.com/title/tt2557490/&lt;/a&gt;\n\nSource: VOD\n\nAnother nice Chinese VOD, Does have HC subs... but other than that, good quality.. Enjoy\n\nGeneral\n\nFormat                                   : Matroska\nFormat version                           : Version 2\nFile size                                : 973 MiB\nDuration                                 : 1h 51mn\nOverall bit rate mode                    : Variable\nOverall bit rate                         : 1 224 Kbps\nEncoded date                             : UTC 2014-06-14 13:30:15\nWriting application                      : mkvmerge v7.0.0 ('Where We Going') 32bit built on Jun  9 2014 15:08:34\nWriting library                          : libebml v1.3.0 + libmatroska v1.4.1\n\n\nVideo\nID                                       : 1\nFormat                                   : AVC\nFormat/Info                              : Advanced Video Codec\nFormat profile                           : &lt;a class=&quot;__cf_email__&quot; href=&quot;/cdn-cgi/l/email-protection&quot; data-cfemail=&quot;672f0e000f272b534956&quot;&gt;[email&amp;#160;protected]&lt;/a&gt;&lt;script cf-hash='f9e31' type=&quot;text/javascript&quot;&gt;\n/* &lt;![CDATA[ */!function(){try{var t=&quot;currentScript&quot;in document?document.currentScript:function(){for(var t=document.getElementsByTagName(&quot;script&quot;),e=t.length;e--;)if(t[e].getAttribute(&quot;cf-hash&quot;))return t[e]}();if(t&amp;&amp;t.previousSibling){var e,r,n,i,c=t.previousSibling,a=c.getAttribute(&quot;data-cfemail&quot;);if(a){for(e=&quot;&quot;,r=parseInt(a.substr(0,2),16),n=2;a.length-n;n+=2)i=parseInt(a.substr(n,2),16)^r,e+=String.fromCharCode(i);e=document.createTextNode(e),c.parentNode.replaceChild(e,c)}}}catch(u){}}();/* ]]&gt; */&lt;/script&gt;\nFormat settings, CABAC                   : Yes\nFormat settings, ReFrames                : 3 frames\nCodec ID                                 : V_MPEG4/ISO/AVC\nDuration                                 : 1h 51mn\nBit rate mode                            : Variable\nBit rate                                 : 1 007 Kbps\nMaximum bit rate                         : 40.0 Mbps\nWidth                                    : 720 pixels\nHeight                                   : 304 pixels\nDisplay aspect ratio                     : 2.35:1\nFrame rate mode                          : Constant\nFrame rate                               : 25.000 fps\nColor space                              : YUV\nChroma subsampling                       : 4:2:0\nBit depth                                : 8 bits\nScan type                                : Progressive\nBits/(Pixel*Frame)                       : 0.184\nStream size                              : 801 MiB (82%)\nWriting library                          : x264 core 142 r2431 ac76440\nDefault                                  : Yes\nForced                                   : No\nColor primaries                          : BT.709\nTransfer characteristics                 : BT.709\nMatrix coefficients                      : BT.709\n\nAudio\nID                                       : 2\nFormat                                   : AC-3\nFormat/Info                              : Audio Coding 3\nMode extension                           : CM (complete main)\nFormat settings, Endianness              : Big\nCodec ID                                 : A_AC3\nDuration                                 : 1h 51mn\nBit rate mode                            : Constant\nBit rate                                 : 192 Kbps\nChannel(s)                               : 2 channels\nChannel positions                        : Front: L R\nSampling rate                            : 44.1 KHz\nBit depth                                : 16 bits\nCompression mode                         : Lossy\nStream size                              : 153 MiB (16%)\nDefault                                  : Yes\nForced                                   : No\n\n\n[img]http://imgchicken.com/images/26406274864144854307.png[/img]\n\n[img]http://imgchicken.com/images/93210879449557001850.png[/img]\n\n[img]http://imgchicken.com/images/67323755909351492757.png[/img]\n\n[img]http://imgchicken.com/images/03962703970796010865.png[/img]\n\n[img]http://imgchicken.com/images/45440113928071978910.png[/img]\n\n[img]http://imgchicken.com/images/36918880135619587515.png[/img]\n\n\n[/center]\n","torrent":{"xt":"urn:btih:7eba73a510fd318a1afae67a332ac61ae78a7443","amp;dn":"A+Million+Ways+To+Die+In+The+West+2014+Webrip+x264+AC3+TiTAN","amp;tr":["udp%3A%2F%2Ftracker.openbittorrent.com%3A80","udp%3A%2F%2Fopen.demonii.com%3A1337","udp%3A%2F%2Ftracker.coppersurfer.tk%3A6969","udp%3A%2F%2Fexodus.desync.com%3A6969"],"infoHash":"7eba73a510fd318a1afae67a332ac61ae78a7443","infoHashBuffer":{"type":"Buffer","data":[126,186,115,165,16,253,49,138,26,250,230,122,51,42,198,26,231,138,116,67]},"announce":[],"urlList":[]}}